<svg width="177" height="55" viewBox="0 0 177 55" fill="none" xmlns="http://www.w3.org/2000/svg">
<path d="M0 21.8521V0.556458H12.986V3.28689H2.95651V9.83472H12.0528V12.5999H2.95651V19.1217H12.986V21.8521H0Z" fill="#423E8D"/>
<path d="M18.436 21.9565H15.6016V7.51306H18.3749V9.58263C19.4302 7.78263 21.1483 7.08698 22.8315 7.08698C26.2938 7.08698 28.0119 9.58263 28.0119 12.7913V21.9565H25.1775V13.2783C25.1775 11.2609 24.3315 9.6435 21.8024 9.6435C19.5697 9.6435 18.4273 11.4174 18.4273 13.6087V21.9565H18.436Z" fill="#423E8D"/>
<path d="M33.1305 17.3043C33.3136 18.8087 34.4561 20.0087 36.5056 20.0087C38.1016 20.0087 38.9737 19.1043 38.9737 18.0869C38.9737 17.1826 38.3109 16.4956 37.1074 16.226L34.6392 15.6869C32.3804 15.2087 31.0199 13.6695 31.0199 11.6347C31.0199 9.17387 33.3398 7.06952 36.1742 7.06952C40.1511 7.06952 41.3895 9.65213 41.686 10.9478L39.183 11.8782C39.0609 11.1304 38.4591 9.47821 36.1742 9.47821C34.7264 9.47821 33.7671 10.4086 33.7671 11.4C33.7671 12.2695 34.3078 12.9043 35.4241 13.1391L37.7702 13.6521C40.3953 14.226 41.7732 15.8173 41.7732 17.9478C41.7732 20.0782 40.0551 22.426 36.4707 22.426C32.4938 22.426 30.8106 19.8695 30.5664 18.226L33.1305 17.3217V17.3043Z" fill="#423E8D"/>
<path d="M44.9404 7.51305H47.74V21.9565H44.9404V7.51305ZM46.3271 0C47.4696 0 48.3766 0.904348 48.3766 2.04348C48.3766 3.18261 47.4696 4.05217 46.3271 4.05217C45.1846 4.05217 44.3125 3.14783 44.3125 2.04348C44.3125 0.939131 45.2108 0 46.3271 0Z" fill="#423E8D"/>
<path d="M54.7856 21.9565H51.9512V7.51306H54.7245V9.58263C55.7798 7.78263 57.4979 7.08698 59.1811 7.08698C62.6434 7.08698 64.3615 9.58263 64.3615 12.7913V21.9565H61.5271V13.2783C61.5271 11.2609 60.6812 9.6435 58.152 9.6435C55.9193 9.6435 54.7769 11.4174 54.7769 13.6087V21.9565H54.7856Z" fill="#423E8D"/>
<path d="M79.0049 14.7217C79.0049 11.3912 76.8944 9.58253 74.4873 9.58253C72.0802 9.58253 69.9697 11.3825 69.9697 14.7217C69.9697 18.0608 72.0802 19.8869 74.4873 19.8869C76.8944 19.8869 79.0049 18.0869 79.0049 14.7217ZM81.9004 14.7217C81.9004 19.1391 78.8305 22.4086 74.4873 22.4086C70.1441 22.4086 67.0742 19.1391 67.0742 14.7217C67.0742 10.3043 70.1441 7.06079 74.4873 7.06079C78.8305 7.06079 81.9004 10.3391 81.9004 14.7217Z" fill="#423E8D"/>
<path d="M116.202 21.8521V5.2695L108.911 21.8521H106.198L98.9685 5.2695V21.8521H96.0469V0.556458H100.05L107.585 17.8869L115.173 0.556458H119.123V21.8521H116.202Z" fill="#423E8D"/>
<path d="M130.052 5.64354H127.672L130.297 1.26093H133.855L130.061 5.64354H130.052ZM132.913 13.2435C132.852 11.174 131.5 9.54788 128.936 9.54788C126.555 9.54788 125.107 11.3827 124.985 13.2435H132.913ZM135.774 17.8435C134.963 20.3914 132.643 22.4088 129.268 22.4088C125.378 22.4088 121.977 19.5827 121.977 14.687C121.977 10.1479 125.264 7.06093 128.91 7.06093C133.367 7.06093 135.87 10.1218 135.87 14.6261C135.87 14.9914 135.843 15.3479 135.808 15.5305H124.907C124.968 18.1131 126.834 19.9131 129.276 19.9131C131.718 19.9131 132.8 18.6175 133.34 17.0001L135.782 17.8435H135.774Z" fill="#423E8D"/>
<path d="M144.808 19.8522C147.398 19.8522 148.994 17.6 148.994 14.6261C148.994 11.6522 147.424 9.60868 144.834 9.60868C142.244 9.60868 140.552 11.713 140.552 14.6869C140.552 17.6609 142.087 19.8522 144.799 19.8522M149.02 19.7652C148.331 21.1478 146.787 22.3478 144.529 22.3478C140.281 22.3478 137.656 18.9826 137.656 14.6869C137.656 10.3913 140.43 7.12172 144.529 7.12172C147.093 7.12172 148.479 8.38259 148.959 9.55651V0.208679H151.759V19.2869C151.759 20.6696 151.881 21.7217 151.907 21.9652H149.168C149.107 21.6348 149.02 20.8869 149.02 20.0087V19.7652Z" fill="#423E8D"/>
<path d="M155.981 7.51305H158.781V21.9565H155.981V7.51305ZM157.368 0C158.511 0 159.418 0.904348 159.418 2.04348C159.418 3.18261 158.511 4.05217 157.368 4.05217C156.226 4.05217 155.354 3.14783 155.354 2.04348C155.354 0.939131 156.261 0 157.368 0Z" fill="#423E8D"/>
<path d="M173.72 14.7217C173.72 11.3912 171.609 9.58253 169.202 9.58253C166.795 9.58253 164.685 11.3825 164.685 14.7217C164.685 18.0608 166.795 19.8869 169.202 19.8869C171.609 19.8869 173.72 18.0869 173.72 14.7217ZM176.615 14.7217C176.615 19.1391 173.545 22.4086 169.202 22.4086C164.859 22.4086 161.789 19.1391 161.789 14.7217C161.789 10.3043 164.859 7.06079 169.202 7.06079C173.545 7.06079 176.615 10.3391 176.615 14.7217Z" fill="#423E8D"/>
<path d="M62.8188 55C61.0135 55 59.3041 54.8087 57.6907 54.4174C56.0773 54.0261 54.7516 53.5652 53.7051 53.0435V46.5913H54.3417C54.708 46.8695 55.1179 47.1739 55.5889 47.5043C56.0598 47.8348 56.7052 48.1826 57.5337 48.5565C58.2489 48.8869 59.0512 49.1739 59.9495 49.4174C60.8478 49.6522 61.8158 49.7739 62.8624 49.7739C63.909 49.7739 64.8945 49.6087 65.7142 49.2695C66.534 48.9391 66.9527 48.4087 66.9527 47.6782C66.9527 47.113 66.7608 46.6869 66.3858 46.3913C66.0108 46.1043 65.2695 45.8261 64.1793 45.5652C63.595 45.4174 62.8624 45.2609 61.9728 45.0956C61.0833 44.9304 60.2983 44.7391 59.6094 44.513C57.682 43.9217 56.2342 43.0348 55.2662 41.8695C54.2981 40.7043 53.8097 39.1652 53.8097 37.2608C53.8097 36.1739 54.0626 35.1478 54.5598 34.1739C55.0656 33.2087 55.8069 32.3478 56.775 31.5913C57.7517 30.8522 58.9553 30.2608 60.3943 29.8261C61.8333 29.3913 63.4554 29.1739 65.2607 29.1739C67.066 29.1739 68.5574 29.3478 70.0051 29.6869C71.4528 30.0261 72.6651 30.4435 73.6593 30.9217V37.113H73.0488C72.7872 36.913 72.3686 36.6435 71.8017 36.2956C71.2348 35.9565 70.6854 35.6608 70.1447 35.4174C69.508 35.1304 68.7841 34.8869 67.9905 34.6956C67.1969 34.5043 66.3858 34.4087 65.5573 34.4087C64.4497 34.4087 63.5165 34.6 62.749 34.9739C61.9815 35.3565 61.5978 35.8522 61.5978 36.4782C61.5978 37.0348 61.7897 37.4695 62.1647 37.7826C62.5484 38.1043 63.3682 38.4174 64.6328 38.7217C65.2869 38.8869 66.0457 39.0435 66.8916 39.1913C67.7463 39.3391 68.5661 39.5478 69.351 39.8087C71.1127 40.3739 72.4471 41.2087 73.3628 42.3043C74.2698 43.4 74.7233 44.8609 74.7233 46.6782C74.7233 47.8261 74.453 48.9217 73.9122 49.9565C73.3715 51 72.6128 51.8696 71.6185 52.5826C70.5633 53.3478 69.3336 53.9478 67.912 54.3739C66.4904 54.7913 64.7898 55 62.8101 55" fill="#423E8D"/>
<path d="M93.1772 38.9391C93.1336 37.3217 92.7586 36.0956 92.0522 35.2521C91.3457 34.4087 90.2643 33.9913 88.8078 33.9913C87.3514 33.9913 86.1566 34.4347 85.3193 35.3217C84.4821 36.2087 84.0199 37.4173 83.9327 38.9391H93.1772ZM90.6393 54.9739C86.0083 54.9739 82.45 53.8695 79.9819 51.6608C77.5138 49.4521 76.2754 46.3043 76.2754 42.226C76.2754 38.1478 77.4266 35.0434 79.729 32.6608C82.0314 30.2782 85.2496 29.0869 89.3922 29.0869C93.151 29.0869 95.9767 30.0956 97.8692 32.113C99.7617 34.1304 100.712 37.026 100.712 40.7913V43.5391H83.9501C84.0199 44.6782 84.2641 45.626 84.674 46.3826C85.0839 47.1478 85.6246 47.7478 86.2874 48.2C86.9415 48.6521 87.709 48.9739 88.5811 49.1739C89.4532 49.3652 90.4126 49.4695 91.4417 49.4695C92.3312 49.4695 93.2034 49.3739 94.0668 49.1739C94.9302 48.9739 95.7151 48.7217 96.4302 48.4C97.0582 48.1217 97.6338 47.826 98.1658 47.5043C98.6977 47.1826 99.1251 46.8956 99.4652 46.6521H100.276V52.9478C99.6484 53.1913 99.0815 53.426 98.5582 53.6347C98.0349 53.8434 97.3285 54.0608 96.4302 54.2782C95.6017 54.4956 94.7383 54.6695 93.8575 54.7913C92.9766 54.913 91.9039 54.9739 90.6306 54.9739" fill="#423E8D"/>
<path d="M126.196 54.3217H118.504V42.1826C118.504 41.1912 118.461 40.2086 118.382 39.226C118.304 38.2434 118.155 37.5217 117.937 37.0521C117.676 36.5043 117.292 36.1043 116.803 35.8608C116.306 35.626 115.644 35.5043 114.815 35.5043C114.187 35.5043 113.55 35.6173 112.914 35.8521C112.277 36.0869 111.588 36.4521 110.856 36.9652V54.313H103.207V29.8434H110.856V32.5478C112.111 31.4869 113.332 30.6608 114.519 30.0608C115.705 29.4695 117.022 29.1652 118.469 29.1652C120.972 29.1652 122.891 29.9565 124.217 31.5304C125.542 33.1043 126.205 35.3912 126.205 38.3826V54.313L126.196 54.3217Z" fill="#423E8D"/>
<path d="M144.04 47.9391V42.8435C142.74 42.9739 141.694 43.0783 140.891 43.1739C140.089 43.2696 139.304 43.4522 138.528 43.7304C137.856 43.9652 137.333 44.313 136.967 44.7826C136.592 45.2609 136.409 45.887 136.409 46.6696C136.409 47.8174 136.714 48.6087 137.333 49.0348C137.952 49.4609 138.868 49.6783 140.08 49.6783C140.752 49.6783 141.432 49.5304 142.138 49.2174C142.836 48.913 143.473 48.487 144.04 47.9304M144.04 51.7217C143.516 52.1565 143.045 52.5565 142.627 52.8957C142.208 53.2435 141.65 53.5913 140.952 53.9478C140.263 54.2783 139.601 54.5391 138.955 54.7044C138.31 54.8783 137.403 54.9652 136.234 54.9652C134.063 54.9652 132.257 54.2435 130.818 52.7826C129.388 51.3304 128.664 49.4957 128.664 47.287C128.664 45.4696 129.03 44.0087 129.754 42.887C130.478 41.7652 131.533 40.8783 132.903 40.2261C134.289 39.5652 135.938 39.0957 137.865 38.8261C139.792 38.5652 141.859 38.3652 144.075 38.2174V38.087C144.075 36.7391 143.577 35.8 142.574 35.287C141.572 34.7739 140.08 34.513 138.083 34.513C137.176 34.513 136.121 34.6783 134.917 35C133.705 35.3304 132.528 35.7478 131.376 36.2522H130.722V30.3478C131.481 30.1304 132.702 29.8696 134.394 29.5739C136.086 29.2783 137.787 29.1304 139.505 29.1304C143.734 29.1304 146.813 29.8348 148.74 31.2348C150.668 32.6348 151.636 34.7739 151.636 37.6522V54.3044H144.031V51.713L144.04 51.7217Z" fill="#423E8D"/>
<path d="M167.962 54.9826C165.938 54.9826 164.081 54.7304 162.398 54.2173C160.714 53.7043 159.249 52.9304 158.011 51.8608C156.79 50.7999 155.83 49.4695 155.15 47.8608C154.461 46.2521 154.121 44.3652 154.121 42.1826C154.121 39.8434 154.496 37.8521 155.237 36.2086C155.979 34.5652 156.99 33.2173 158.255 32.1565C159.476 31.1391 160.915 30.3826 162.572 29.8956C164.229 29.4086 165.947 29.1652 167.744 29.1652C169.095 29.1652 170.456 29.3217 171.808 29.6347C173.168 29.9478 174.529 30.4434 175.898 31.1304V37.6695H174.913C174.607 37.3739 174.232 37.0608 173.788 36.713C173.343 36.3652 172.854 36.0434 172.331 35.7565C171.773 35.4521 171.154 35.1912 170.447 34.9826C169.75 34.7739 168.965 34.6695 168.11 34.6695C166.156 34.6695 164.648 35.3478 163.575 36.713C162.502 38.0695 161.97 39.8956 161.97 42.1913C161.97 44.6434 162.546 46.4782 163.688 47.6782C164.831 48.8869 166.348 49.4869 168.25 49.4869C169.209 49.4869 170.055 49.3826 170.779 49.1565C171.511 48.9391 172.139 48.6782 172.662 48.3739C173.168 48.0695 173.613 47.7565 173.971 47.426C174.337 47.0956 174.651 46.7999 174.913 46.5478H175.898V53.0869C175.462 53.2695 174.956 53.4956 174.381 53.7391C173.805 53.9913 173.221 54.1913 172.619 54.3478C171.878 54.5478 171.18 54.7043 170.534 54.8173C169.889 54.9217 169.026 54.9826 167.962 54.9826Z" fill="#423E8D"/>
</svg>
