<svg width="141" height="114" viewBox="0 0 141 114" fill="none" xmlns="http://www.w3.org/2000/svg">
<path fill-rule="evenodd" clip-rule="evenodd" d="M135.634 27.4792C139.177 18.9258 141 9.7583 141 0.5H112.8C112.8 6.05493 111.706 11.5554 109.58 16.6875C107.454 21.8196 104.339 26.4827 100.411 30.4106C96.4827 34.3386 91.8196 37.4543 86.6875 39.5801C81.5554 41.7058 76.0549 42.8 70.5 42.8C64.9451 42.8 59.4446 41.7058 54.3125 39.5801C49.1804 37.4543 44.5173 34.3386 40.5894 30.4106C36.6615 26.4827 33.5457 21.8196 31.4199 16.6875C29.2941 11.5554 28.2 6.05493 28.2 0.5H0C0 9.7583 1.82349 18.9258 5.36646 27.4792C8.90942 36.0327 14.1024 43.8044 20.6489 50.3511C23.0526 52.7546 25.6216 54.9758 28.3337 57C25.6216 59.0242 23.0526 61.2454 20.6489 63.6489C14.1024 70.1956 8.90942 77.9673 5.36646 86.5208C1.82349 95.0742 0 104.242 0 113.5H35.25C35.25 108.871 36.1617 104.287 37.9332 100.01C39.7047 95.7336 42.3013 91.8477 45.5745 88.5745C48.8478 85.3013 52.7336 82.7048 57.0104 80.9333C61.2871 79.1619 65.8708 78.25 70.5 78.25C75.129 78.25 79.7129 79.1619 83.9896 80.9333C88.2664 82.7048 92.1522 85.3013 95.4255 88.5745C98.6987 91.8477 101.295 95.7336 103.067 100.01C104.838 104.287 105.75 108.871 105.75 113.5H141C141 104.242 139.177 95.0742 135.634 86.5208C132.091 77.9673 126.898 70.1956 120.351 63.6489C117.947 61.2454 115.378 59.0242 112.666 57C115.378 54.9758 117.947 52.7546 120.351 50.3511C126.898 43.8044 132.091 36.0327 135.634 27.4792Z" fill="#FF0000"/>
</svg>
