<svg width="141" height="107" viewBox="0 0 141 107" fill="none" xmlns="http://www.w3.org/2000/svg">
<path d="M1.84899e-05 0.500006C2.01087e-05 9.7582 1.82356 18.9257 5.36652 27.4792C8.90947 36.0326 14.1025 43.8045 20.649 50.351C27.1955 56.8976 34.9674 62.0906 43.5209 65.6335C52.0743 69.1765 61.2418 71 70.5 71L70.5 35.75C65.8709 35.75 61.2872 34.8382 57.0104 33.0667C52.7337 31.2953 48.8478 28.6988 45.5745 25.4255C42.3012 22.1522 39.7047 18.2663 37.9333 13.9896C36.1618 9.71286 35.25 5.1291 35.25 0.5L1.84899e-05 0.500006Z" fill="#001AFF"/>
<path d="M0 106.5C-8.09376e-07 97.2418 1.82353 88.0743 5.36649 79.5208C8.90945 70.9674 14.1024 63.1955 20.649 56.649C27.1955 50.1024 34.9674 44.9094 43.5208 41.3665C52.0743 37.8235 61.2418 36 70.5 36V71.25C65.8709 71.25 61.2871 72.1618 57.0104 73.9332C52.7337 75.7047 48.8478 78.3012 45.5745 81.5745C42.3012 84.8477 39.7047 88.7337 37.9332 93.0104C36.1618 97.2871 35.25 101.871 35.25 106.5H0Z" fill="#FF0000"/>
<path d="M141 106.5C141 97.2418 139.176 88.0743 135.634 79.5208C132.091 70.9674 126.898 63.1955 120.351 56.649C113.805 50.1024 106.033 44.9094 97.4792 41.3665C88.9257 37.8235 79.7582 36 70.5 36V71.25C75.1291 71.25 79.7129 72.1618 83.9896 73.9332C88.2663 75.7047 92.1523 78.3012 95.4255 81.5745C98.6988 84.8477 101.295 88.7337 103.067 93.0104C104.838 97.2871 105.75 101.871 105.75 106.5H141Z" fill="#0019FF"/>
<path d="M141 0.500006C141 9.7582 139.176 18.9257 135.633 27.4792C132.091 36.0326 126.898 43.8045 120.351 50.351C113.804 56.8976 106.033 62.0906 97.4792 65.6335C88.9257 69.1765 79.7582 71 70.5 71L70.5 35.75C75.1291 35.75 79.7129 34.8382 83.9896 33.0667C88.2663 31.2953 92.1522 28.6988 95.4255 25.4255C98.6988 22.1522 101.295 18.2663 103.067 13.9896C104.838 9.71286 105.75 5.1291 105.75 0.5L141 0.500006Z" fill="#FF0000"/>
</svg>
